<svg id="Layer_1" data-name="Layer 1" xmlns="http://www.w3.org/2000/svg" viewBox="0 0 265.07 127.5"><defs><style>.cls-1{fill:#fff;}</style></defs><title>AreasVerdesBlanco</title><path class="cls-1" d="M56.5,77l5.6,27.9H59.3l-1-5.7h-6l-1,5.7H48.5L54.1,77ZM52.8,96.9h5.1L56,86.2c-.1-.4-.3-2.3-.7-5.7h-.2c0,.4-.2,1.3-.3,2.7s-.3,2.3-.4,3Z" transform="translate(0.09 -0.4)"/><path class="cls-1" d="M67.7,104.9H65.1V77h4.7a8.58,8.58,0,0,1,1.7.3,3.29,3.29,0,0,1,1.6.7,4.89,4.89,0,0,1,1.2,1.3,7.22,7.22,0,0,1,.9,2,14.28,14.28,0,0,1,.3,2.9,21.12,21.12,0,0,1-.2,2.6,8.08,8.08,0,0,1-.7,2.2A4.36,4.36,0,0,1,73,90.7a4.9,4.9,0,0,1-2.7.6l6.1,13.6H73.7L67.8,91.2h-.1v13.7Zm0-25.5v9.8h.9c1.8,0,2.9-.3,3.4-1a7.08,7.08,0,0,0,.8-3.9,21.12,21.12,0,0,0-.2-2.6,2.37,2.37,0,0,0-.9-1.5,3.51,3.51,0,0,0-1.4-.6,14.92,14.92,0,0,0-2.1-.2Z" transform="translate(0.09 -0.4)"/><path class="cls-1" d="M88.7,77v2.4H82.5v9.9h6v2.4h-6v11h6.2v2.4H79.9V77Z" transform="translate(0.09 -0.4)"/><path class="cls-1" d="M98.8,77l5.6,27.9h-2.8l-1-5.7h-6l-1,5.7H90.8L96.4,77ZM95.1,96.9h5.1L98.3,86.2c-.1-.4-.3-2.3-.7-5.7h-.1a20.62,20.62,0,0,0-.3,2.7c-.2,1.3-.3,2.3-.4,3Z" transform="translate(0.09 -0.4)"/><path class="cls-1" d="M117.1,78.1v3.3a6.11,6.11,0,0,0-4.1-2.3,3.6,3.6,0,0,0-2.9,1.3,5.17,5.17,0,0,0-1.1,3.2,7.61,7.61,0,0,0,.3,2.1,5.67,5.67,0,0,0,1.2,1.8,17.88,17.88,0,0,0,1.4,1.3c.4.3,1,.7,1.8,1.3s1.4,1,1.8,1.3a10,10,0,0,1,1.4,1.5,8.17,8.17,0,0,1,1.2,2,7.46,7.46,0,0,1,.4,2.6,8.83,8.83,0,0,1-1.9,5.6,6.55,6.55,0,0,1-5.1,2.4,7,7,0,0,1-4.4-1.4v-3.4a6.22,6.22,0,0,0,4.5,2.3,3.75,3.75,0,0,0,3.1-1.5,4.91,4.91,0,0,0,1.1-3.5,6.45,6.45,0,0,0-.3-2,4.35,4.35,0,0,0-1-1.6,15.38,15.38,0,0,0-1.3-1.2c-.4-.3-.9-.7-1.6-1.2a.91.91,0,0,0-.5-.3c-.7-.5-1.3-1-1.8-1.3-.5-.5-1-.9-1.5-1.5a7.19,7.19,0,0,1-1.2-2.1,7.46,7.46,0,0,1-.4-2.6,8.75,8.75,0,0,1,1.7-5.2,5.61,5.61,0,0,1,4.7-2.2A6.48,6.48,0,0,1,117.1,78.1Z" transform="translate(0.09 -0.4)"/><path class="cls-1" d="M142.7,77l-5.6,27.9h-2.3L129.1,77h2.7l3.7,20.3c0,.2.1.5.1.9a10.4,10.4,0,0,0,.2,1.5,7.17,7.17,0,0,1,.1,1.3h.1c.2-2.2.3-3.4.4-3.8L140,76.9h2.7Z" transform="translate(0.09 -0.4)"/><path class="cls-1" d="M154.9,77v2.4h-6.2v9.9h6v2.4h-6v11h6.2v2.4h-8.8V77Z" transform="translate(0.09 -0.4)"/><path class="cls-1" d="M161.9,104.9h-2.6V77H164a8.58,8.58,0,0,1,1.7.3,3.29,3.29,0,0,1,1.6.7,6.79,6.79,0,0,1,1.2,1.2,7.22,7.22,0,0,1,.9,2,14.28,14.28,0,0,1,.3,2.9,21.12,21.12,0,0,1-.2,2.6,8.08,8.08,0,0,1-.7,2.2,4.36,4.36,0,0,1-1.6,1.7,6.37,6.37,0,0,1-2.7.7l6.2,13.6H168l-6-13.7h-.1Zm0-25.5v9.8h.9c1.8,0,2.9-.3,3.4-1a7.08,7.08,0,0,0,.8-3.9,21.12,21.12,0,0,0-.2-2.6,2.37,2.37,0,0,0-.9-1.5,3.51,3.51,0,0,0-1.4-.6,14.92,14.92,0,0,0-2.1-.2Z" transform="translate(0.09 -0.4)"/><path class="cls-1" d="M174.2,104.9V77H177a15.14,15.14,0,0,1,3,.2,7.84,7.84,0,0,1,2.4.9,4.52,4.52,0,0,1,1.9,2.2,19.09,19.09,0,0,1,1.1,4.1,36,36,0,0,1,.4,6.5,50.7,50.7,0,0,1-.4,6.8,10.45,10.45,0,0,1-1.4,4.2,5.82,5.82,0,0,1-2.6,2.3,10.21,10.21,0,0,1-4.2.6Zm2.6-25.5v23.2h.7a5.34,5.34,0,0,0,2.5-.5,4,4,0,0,0,1.6-1.3,6.71,6.71,0,0,0,1-2.3c.2-1.1.3-2.1.4-3.2s.1-2.6.1-4.3c0-2-.1-3.6-.1-4.9a18.81,18.81,0,0,0-.5-3.3,4.27,4.27,0,0,0-1.1-2.1,3.67,3.67,0,0,0-1.7-1,10.68,10.68,0,0,0-2.5-.3Z" transform="translate(0.09 -0.4)"/><path class="cls-1" d="M198.9,77v2.4h-6.2v9.9h6v2.4h-6v11h6.2v2.4h-8.8V77Z" transform="translate(0.09 -0.4)"/><path class="cls-1" d="M213.1,78.1v3.3a6.11,6.11,0,0,0-4.1-2.3,3.6,3.6,0,0,0-2.9,1.3,5.17,5.17,0,0,0-1.1,3.2,5.22,5.22,0,0,0,.4,2.1,5.67,5.67,0,0,0,1.2,1.8,8.64,8.64,0,0,0,1.4,1.3c.4.3,1,.7,1.8,1.3.6.4,1.2.9,1.8,1.3a6.73,6.73,0,0,1,1.4,1.5,5.64,5.64,0,0,1,1.1,2,6.9,6.9,0,0,1,.4,2.5,8.83,8.83,0,0,1-1.9,5.6,6.55,6.55,0,0,1-5.1,2.4,7.67,7.67,0,0,1-4.4-1.4v-3.4a6.22,6.22,0,0,0,4.5,2.3,3.75,3.75,0,0,0,3.1-1.5,4.91,4.91,0,0,0,1.1-3.5,6.45,6.45,0,0,0-.3-2,4.35,4.35,0,0,0-1-1.6,15.38,15.38,0,0,0-1.3-1.2c-.4-.3-.9-.7-1.6-1.2l-.5-.3c-.7-.5-1.3-1-1.8-1.3-.5-.5-1-.9-1.5-1.5a7.19,7.19,0,0,1-1.2-2.1,7.46,7.46,0,0,1-.4-2.6,8.75,8.75,0,0,1,1.7-5.2,5.61,5.61,0,0,1,4.7-2.2A6.55,6.55,0,0,1,213.1,78.1Z" transform="translate(0.09 -0.4)"/><path class="cls-1" d="M106.9,8.7h-7c0,11.7,11,22.7,23.9,22.7V47.1a26.12,26.12,0,0,0,2.4,3h3.5c1-1.3,1.8-2.1,2.4-3V31.4C131.4,17.8,120.5,6.8,106.9,8.7Zm42-8.3A24.4,24.4,0,0,0,127.5,13,28,28,0,0,1,134,24.8,24.34,24.34,0,0,0,155.9.4Z" transform="translate(0.09 -0.4)"/><path class="cls-1" d="M5.7,74.7,29.4,84.9c1.8.8,3.3-1.8,1.5-2.6C23,78.8,15.1,75.5,7.2,72.1c-1.7-.8-3.3,1.8-1.5,2.6Z" transform="translate(0.09 -0.4)"/><path class="cls-1" d="M28.6,101.6A88.85,88.85,0,0,0,1,105.3a1.5,1.5,0,0,0,.8,2.9,90.25,90.25,0,0,1,26.8-3.6,1.5,1.5,0,0,0,0-3Z" transform="translate(0.09 -0.4)"/><path class="cls-1" d="M36.9,110.9c-4.9,4.6-9.6,9.4-14.2,14.4-1.3,1.4.8,3.6,2.1,2.1,4.6-5,9.3-9.8,14.2-14.4,1.4-1.3-.7-3.5-2.1-2.1Z" transform="translate(0.09 -0.4)"/><path class="cls-1" d="M257.7,58,234,68.2c-1.8.8-.2,3.4,1.5,2.6l23.7-10.2c1.8-.7.3-3.3-1.5-2.6Z" transform="translate(0.09 -0.4)"/><path class="cls-1" d="M236.3,90.6a87.11,87.11,0,0,1,26.8,3.6,1.5,1.5,0,0,0,.8-2.9,91.92,91.92,0,0,0-27.6-3.7,1.5,1.5,0,0,0,0,3Z" transform="translate(0.09 -0.4)"/><path class="cls-1" d="M228,109c4.9,4.6,9.6,9.4,14.2,14.4,1.3,1.4,3.4-.7,2.1-2.1-4.6-5-9.3-9.8-14.2-14.4-1.4-1.4-3.6.7-2.1,2.1Z" transform="translate(0.09 -0.4)"/></svg>