<svg xmlns="http://www.w3.org/2000/svg" viewBox="0 0 264.29 127.26"><defs><style>.cls-1{fill:#1f689d;}.cls-2{fill:#ffc200;}</style></defs><title>AreasVerdes_1</title><g id="Layer_2" data-name="Layer 2"><g id="Layer_1-2" data-name="Layer 1"><path class="cls-1" d="M56.16,76.62l5.59,27.89H59l-1-5.73H52l-1,5.73H48.24l5.48-27.89Zm-3.7,19.9h5.07L55.68,85.83q-.12-.56-.7-5.7h-.15c0,.44-.16,1.33-.32,2.65s-.3,2.33-.42,3Z"/><path class="cls-1" d="M67.3,104.51H64.71V76.62h2.77c.79,0,1.44,0,1.94,0a15.05,15.05,0,0,1,1.74.26,4,4,0,0,1,1.61.68A6.77,6.77,0,0,1,74,78.85a5.16,5.16,0,0,1,.86,2,13.59,13.59,0,0,1,.27,2.89,15.82,15.82,0,0,1-.2,2.63,8.29,8.29,0,0,1-.74,2.22,3.94,3.94,0,0,1-1.63,1.68,5.73,5.73,0,0,1-2.68.65L76,104.51H73.29L67.37,90.86H67.3ZM67.3,79v9.77h.92q2.63,0,3.42-1c.53-.67.8-2,.8-3.9a11.46,11.46,0,0,0-.24-2.61,2.52,2.52,0,0,0-.87-1.46,3.31,3.31,0,0,0-1.39-.63A11.54,11.54,0,0,0,67.81,79Z"/><path class="cls-1" d="M88.31,76.62V79H82.13v9.85h6v2.36h-6v11h6.18v2.36H79.54V76.62Z"/><path class="cls-1" d="M98.49,76.62l5.58,27.89H101.3l-1-5.73H94.34l-1,5.73H90.57L96,76.62Zm-3.7,19.9h5.07L98,85.83c-.08-.37-.31-2.27-.71-5.7h-.14c-.06.44-.16,1.33-.32,2.65s-.3,2.33-.43,3Z"/><path class="cls-1" d="M116.73,77.73V81a5.59,5.59,0,0,0-4.11-2.26,3.62,3.62,0,0,0-2.94,1.32,4.81,4.81,0,0,0-1.09,3.2,5.84,5.84,0,0,0,.35,2.09,4.72,4.72,0,0,0,1.2,1.77,15.52,15.52,0,0,0,1.41,1.26c.37.28,1,.71,1.81,1.28s1.36,1,1.8,1.33a14.34,14.34,0,0,1,1.42,1.46,6,6,0,0,1,1.15,2A8,8,0,0,1,118.1,97a8.51,8.51,0,0,1-1.93,5.56,6.21,6.21,0,0,1-5.07,2.35,7,7,0,0,1-4.4-1.4v-3.37a6.15,6.15,0,0,0,4.51,2.26,3.75,3.75,0,0,0,3.11-1.46,5.23,5.23,0,0,0,1.11-3.46,5.8,5.8,0,0,0-.31-2,4.72,4.72,0,0,0-1-1.65,11.57,11.57,0,0,0-1.29-1.22c-.4-.31-.94-.71-1.63-1.2-.22-.15-.39-.26-.48-.34-.74-.52-1.34-1-1.78-1.33a14.28,14.28,0,0,1-1.46-1.46,5.82,5.82,0,0,1-1.17-2.05,8.66,8.66,0,0,1-.37-2.59,8.14,8.14,0,0,1,1.74-5.2,5.64,5.64,0,0,1,4.67-2.2A7.65,7.65,0,0,1,116.73,77.73Z"/><path class="cls-1" d="M142.33,76.62l-5.62,27.89h-2.3l-5.62-27.89h2.66l3.67,20.31c0,.2.09.5.14.92s.11.94.17,1.54.1,1,.13,1.31h.15c.2-2.19.32-3.45.37-3.77l3.62-20.31Z"/><path class="cls-1" d="M154.5,76.62V79h-6.17v9.85h6v2.36h-6v11h6.17v2.36h-8.76V76.62Z"/><path class="cls-1" d="M161.57,104.51H159V76.62h2.77c.79,0,1.44,0,1.95,0a15.71,15.71,0,0,1,1.74.26,4,4,0,0,1,1.61.68,6.77,6.77,0,0,1,1.2,1.24,5.31,5.31,0,0,1,.85,2,13.54,13.54,0,0,1,.28,2.89,14.75,14.75,0,0,1-.21,2.63,8,8,0,0,1-.74,2.22,3.91,3.91,0,0,1-1.62,1.68,5.77,5.77,0,0,1-2.69.65l6.18,13.61h-2.74l-5.92-13.65h-.07Zm0-25.53v9.77h.92c1.76,0,2.9-.34,3.43-1s.79-2,.79-3.9a11.46,11.46,0,0,0-.24-2.61,2.52,2.52,0,0,0-.87-1.46,3.33,3.33,0,0,0-1.38-.63,11.69,11.69,0,0,0-2.13-.15Z"/><path class="cls-1" d="M173.82,104.51V76.62h2.81a21.54,21.54,0,0,1,3,.16,6.36,6.36,0,0,1,2.36.93,4.74,4.74,0,0,1,1.91,2.2A17.2,17.2,0,0,1,185,84a40.15,40.15,0,0,1,.44,6.54,51.38,51.38,0,0,1-.36,6.81,11,11,0,0,1-1.39,4.24,5.32,5.32,0,0,1-2.63,2.27,11.81,11.81,0,0,1-4.24.63ZM176.41,79v23.17h.74a6,6,0,0,0,2.49-.47,4.26,4.26,0,0,0,1.65-1.25,5.69,5.69,0,0,0,1-2.34,24.71,24.71,0,0,0,.42-3.2c.07-1.11.11-2.55.11-4.33,0-2-.05-3.63-.15-4.9a19.26,19.26,0,0,0-.5-3.29,4.3,4.3,0,0,0-1.07-2.09,4.12,4.12,0,0,0-1.68-1,8.67,8.67,0,0,0-2.52-.3Z"/><path class="cls-1" d="M198.57,76.62V79h-6.18v9.85h6v2.36h-6v11h6.18v2.36H189.8V76.62Z"/><path class="cls-1" d="M212.74,77.73V81a5.59,5.59,0,0,0-4.11-2.26,3.62,3.62,0,0,0-2.94,1.32,4.81,4.81,0,0,0-1.09,3.2,6.07,6.07,0,0,0,.35,2.09,4.88,4.88,0,0,0,1.21,1.77,14.36,14.36,0,0,0,1.4,1.26c.37.28,1,.71,1.81,1.28a20.22,20.22,0,0,1,1.8,1.33,13.35,13.35,0,0,1,1.42,1.46,6,6,0,0,1,1.15,2,7.69,7.69,0,0,1,.37,2.48,8.5,8.5,0,0,1-1.92,5.56,6.24,6.24,0,0,1-5.07,2.35,7.06,7.06,0,0,1-4.41-1.4v-3.37a6.15,6.15,0,0,0,4.52,2.26,3.74,3.74,0,0,0,3.1-1.46,5.29,5.29,0,0,0,1.12-3.46,5.8,5.8,0,0,0-.32-2,4.72,4.72,0,0,0-1-1.65,10.76,10.76,0,0,0-1.29-1.22c-.4-.31-.94-.71-1.63-1.2l-.48-.34c-.74-.52-1.33-1-1.78-1.33a14.28,14.28,0,0,1-1.46-1.46,5.65,5.65,0,0,1-1.16-2.05,8.35,8.35,0,0,1-.37-2.59,8.14,8.14,0,0,1,1.74-5.2,5.61,5.61,0,0,1,4.66-2.2A7.65,7.65,0,0,1,212.74,77.73Z"/><path class="cls-1" d="M106.58,8.3h-7C99.58,20,110.56,31,123.44,31V46.73c.64,1,1.43,1.75,2.39,3.05h3.5c1-1.3,1.75-2.09,2.4-3.05V31C131.08,17.45,120.11,6.48,106.58,8.3Zm42-8.3a24.49,24.49,0,0,0-21.4,12.6,28,28,0,0,1,6.45,11.77A24.5,24.5,0,0,0,155.58,0Z"/><path class="cls-2" d="M5.7,64.25,29.33,74.37c1.75.75,3.28-1.83,1.51-2.59L7.22,61.66c-1.76-.76-3.29,1.83-1.52,2.59Z"/><path class="cls-2" d="M28.55,91.09a91.06,91.06,0,0,0-27.5,3.67,1.5,1.5,0,0,0,.8,2.89,88.35,88.35,0,0,1,26.7-3.56,1.5,1.5,0,0,0,0-3Z"/><path class="cls-2" d="M34.77,110.33q-7.34,6.93-14.17,14.34c-1.3,1.42.81,3.55,2.13,2.12q6.82-7.41,14.16-14.33c1.41-1.33-.71-3.45-2.12-2.13Z"/><path class="cls-2" d="M257.07,57.66,233.44,67.78c-1.77.76-.24,3.34,1.52,2.59l23.62-10.12c1.77-.76.25-3.35-1.51-2.59Z"/><path class="cls-2" d="M235.73,90.09a88.31,88.31,0,0,1,26.7,3.56,1.5,1.5,0,0,0,.8-2.89,91,91,0,0,0-27.5-3.67c-1.93,0-1.93,3,0,3Z"/><path class="cls-2" d="M227.39,108.46q7.34,6.92,14.17,14.33c1.31,1.43,3.43-.7,2.12-2.12q-6.83-7.41-14.17-14.34c-1.4-1.32-3.53.8-2.12,2.13Z"/></g></g></svg>