<?xml version="1.0" encoding="utf-8"?>
<!-- Generator: Adobe Illustrator 23.0.0, SVG Export Plug-In . SVG Version: 6.00 Build 0)  -->
<svg version="1.1" id="Layer_1" xmlns="http://www.w3.org/2000/svg" xmlns:xlink="http://www.w3.org/1999/xlink" x="0px" y="0px"
	 viewBox="0 0 265 128" style="enable-background:new 0 0 265 128;" xml:space="preserve">
<style type="text/css">
	.st0{fill:#1F689D;}
	.st1{fill:#FFC200;}
</style>
<title>AreasVerdes_1</title>
<path class="st0" d="M56.5,77l5.6,27.9h-2.8l-1-5.7h-6l-1,5.7h-2.8L54.1,77H56.5z M52.8,96.9h5.1L56,86.2c-0.1-0.4-0.3-2.3-0.7-5.7
	h-0.2c0,0.4-0.2,1.3-0.3,2.7c-0.2,1.3-0.3,2.3-0.4,3L52.8,96.9z"/>
<path class="st0" d="M67.7,104.9h-2.6V77h2.8c0.8,0,1.4,0,1.9,0c0.6,0.1,1.2,0.1,1.7,0.3c0.6,0.1,1.1,0.3,1.6,0.7
	c0.5,0.4,0.9,0.8,1.2,1.3c0.4,0.6,0.7,1.3,0.9,2c0.2,1,0.3,1.9,0.3,2.9c0,0.9-0.1,1.8-0.2,2.6c-0.1,0.8-0.4,1.5-0.7,2.2
	c-0.4,0.7-0.9,1.3-1.6,1.7c-0.8,0.4-1.7,0.7-2.7,0.6l6.1,13.6h-2.7l-5.9-13.7h-0.1V104.9z M67.7,79.4v9.8h0.9c1.8,0,2.9-0.3,3.4-1
	c0.5-0.7,0.8-2,0.8-3.9c0-0.9-0.1-1.8-0.2-2.6c-0.1-0.6-0.4-1.1-0.9-1.5c-0.4-0.3-0.9-0.5-1.4-0.6c-0.7-0.1-1.4-0.2-2.1-0.2H67.7z"
	/>
<path class="st0" d="M88.7,77v2.4h-6.2v9.9h6v2.4h-6v11h6.2v2.4h-8.8V77H88.7z"/>
<path class="st0" d="M98.8,77l5.6,27.9h-2.8l-1-5.7h-6l-1,5.7h-2.8L96.4,77H98.8z M95.1,96.9h5.1l-1.9-10.7
	c-0.1-0.4-0.3-2.3-0.7-5.7h-0.1c-0.1,0.4-0.2,1.3-0.3,2.7c-0.2,1.3-0.3,2.3-0.4,3L95.1,96.9z"/>
<path class="st0" d="M117.1,78.1v3.3c-1-1.3-2.5-2.1-4.1-2.3c-1.1,0-2.2,0.4-2.9,1.3c-0.7,0.9-1.1,2-1.1,3.2c0,0.7,0.1,1.4,0.3,2.1
	c0.3,0.7,0.7,1.3,1.2,1.8c0.4,0.4,0.9,0.9,1.4,1.3c0.4,0.3,1,0.7,1.8,1.3c0.8,0.6,1.4,1,1.8,1.3c0.5,0.5,1,0.9,1.4,1.5
	c0.5,0.6,0.9,1.3,1.2,2c0.3,0.8,0.4,1.7,0.4,2.6c0,2-0.6,4-1.9,5.6c-1.2,1.5-3.1,2.4-5.1,2.4c-1.6,0-3.1-0.4-4.4-1.4v-3.4
	c1.1,1.4,2.8,2.2,4.5,2.3c1.2,0,2.4-0.5,3.1-1.5c0.8-1,1.2-2.2,1.1-3.5c0-0.7-0.1-1.4-0.3-2c-0.2-0.6-0.6-1.2-1-1.6
	c-0.4-0.4-0.8-0.8-1.3-1.2c-0.4-0.3-0.9-0.7-1.6-1.2c-0.2-0.2-0.4-0.3-0.5-0.3c-0.7-0.5-1.3-1-1.8-1.3c-0.5-0.5-1-0.9-1.5-1.5
	c-0.5-0.6-0.9-1.3-1.2-2.1c-0.3-0.8-0.4-1.7-0.4-2.6c0-1.9,0.6-3.7,1.7-5.2c1.1-1.4,2.8-2.3,4.7-2.2
	C114.3,76.6,115.8,77.2,117.1,78.1z"/>
<path class="st0" d="M142.7,77l-5.6,27.9h-2.3L129.1,77h2.7l3.7,20.3c0,0.2,0.1,0.5,0.1,0.9s0.1,0.9,0.2,1.5c0.1,0.6,0.1,1,0.1,1.3
	h0.1c0.2-2.2,0.3-3.4,0.4-3.8l3.6-20.3H142.7z"/>
<path class="st0" d="M154.9,77v2.4h-6.2v9.9h6v2.4h-6v11h6.2v2.4h-8.8V77H154.9z"/>
<path class="st0" d="M161.9,104.9h-2.6V77h2.8c0.8,0,1.4,0,1.9,0c0.6,0.1,1.2,0.1,1.7,0.3c0.6,0.1,1.1,0.3,1.6,0.7
	c0.5,0.4,0.9,0.8,1.2,1.2c0.4,0.6,0.7,1.3,0.9,2c0.2,1,0.3,1.9,0.3,2.9c0,0.9-0.1,1.8-0.2,2.6c-0.1,0.8-0.4,1.5-0.7,2.2
	c-0.4,0.7-0.9,1.3-1.6,1.7c-0.8,0.4-1.8,0.7-2.7,0.7l6.2,13.6h-2.7L162,91.2h-0.1L161.9,104.9z M161.9,79.4v9.8h0.9
	c1.8,0,2.9-0.3,3.4-1s0.8-2,0.8-3.9c0-0.9-0.1-1.8-0.2-2.6c-0.1-0.6-0.4-1.1-0.9-1.5c-0.4-0.3-0.9-0.5-1.4-0.6
	c-0.7-0.1-1.4-0.2-2.1-0.2L161.9,79.4z"/>
<path class="st0" d="M174.2,104.9V77h2.8c1,0,2,0,3,0.2c0.8,0.1,1.6,0.5,2.4,0.9c0.9,0.5,1.5,1.3,1.9,2.2c0.5,1.3,0.9,2.7,1.1,4.1
	c0.3,2.2,0.5,4.4,0.4,6.5c0,2.3-0.1,4.6-0.4,6.8c-0.2,1.5-0.6,2.9-1.4,4.2c-0.6,1-1.5,1.8-2.6,2.3c-1.4,0.5-2.8,0.7-4.2,0.6
	L174.2,104.9z M176.8,79.4v23.2h0.7c0.9,0,1.7-0.1,2.5-0.5c0.6-0.3,1.2-0.7,1.6-1.3c0.5-0.7,0.8-1.5,1-2.3c0.2-1.1,0.3-2.1,0.4-3.2
	c0.1-1.1,0.1-2.6,0.1-4.3c0-2-0.1-3.6-0.1-4.9c-0.1-1.1-0.2-2.2-0.5-3.3c-0.2-0.8-0.5-1.5-1.1-2.1c-0.5-0.5-1-0.8-1.7-1
	c-0.8-0.2-1.7-0.3-2.5-0.3H176.8z"/>
<path class="st0" d="M198.9,77v2.4h-6.2v9.9h6v2.4h-6v11h6.2v2.4h-8.8V77H198.9z"/>
<path class="st0" d="M213.1,78.1v3.3c-1-1.3-2.5-2.1-4.1-2.3c-1.1,0-2.2,0.4-2.9,1.3c-0.7,0.9-1.1,2-1.1,3.2c0,0.7,0.1,1.4,0.4,2.1
	c0.3,0.7,0.7,1.3,1.2,1.8c0.4,0.5,0.9,0.9,1.4,1.3c0.4,0.3,1,0.7,1.8,1.3c0.6,0.4,1.2,0.9,1.8,1.3c0.5,0.4,1,0.9,1.4,1.5
	c0.5,0.6,0.9,1.3,1.1,2c0.3,0.8,0.4,1.6,0.4,2.5c0,2-0.6,4-1.9,5.6c-1.2,1.5-3.1,2.4-5.1,2.4c-1.6,0-3.1-0.5-4.4-1.4v-3.4
	c1.1,1.4,2.8,2.2,4.5,2.3c1.2,0,2.4-0.5,3.1-1.5c0.8-1,1.2-2.2,1.1-3.5c0-0.7-0.1-1.4-0.3-2c-0.2-0.6-0.6-1.2-1-1.6
	c-0.4-0.4-0.8-0.8-1.3-1.2c-0.4-0.3-0.9-0.7-1.6-1.2l-0.5-0.3c-0.7-0.5-1.3-1-1.8-1.3c-0.5-0.5-1-0.9-1.5-1.5
	c-0.5-0.6-0.9-1.3-1.2-2.1c-0.3-0.8-0.4-1.7-0.4-2.6c0-1.9,0.6-3.7,1.7-5.2c1.1-1.4,2.8-2.3,4.7-2.2
	C210.3,76.6,211.8,77.1,213.1,78.1z"/>
<path class="st0" d="M106.9,8.7h-7c0,11.7,11,22.7,23.9,22.7v15.7c0.6,1,1.4,1.8,2.4,3h3.5c1-1.3,1.8-2.1,2.4-3V31.4
	C131.4,17.8,120.5,6.8,106.9,8.7z M148.9,0.4c-8.9,0-17.1,4.8-21.4,12.6c3.1,3.3,5.3,7.4,6.5,11.8c12.5-1.3,22-11.8,21.9-24.4H148.9
	z"/>
<g>
	<path class="st1" d="M5.7,74.7c7.9,3.4,15.8,6.8,23.7,10.2c1.8,0.8,3.3-1.8,1.5-2.6C23,78.8,15.1,75.5,7.2,72.1
		C5.5,71.3,3.9,73.9,5.7,74.7L5.7,74.7z"/>
</g>
<g>
	<path class="st1" d="M28.6,101.6c-9.4-0.2-18.6,1-27.6,3.7c-1.9,0.5-1.1,3.4,0.8,2.9c8.8-2.6,17.7-3.7,26.8-3.6
		C30.6,104.6,30.6,101.6,28.6,101.6L28.6,101.6z"/>
</g>
<g>
	<path class="st1" d="M36.9,110.9c-4.9,4.6-9.6,9.4-14.2,14.4c-1.3,1.4,0.8,3.6,2.1,2.1c4.6-5,9.3-9.8,14.2-14.4
		C40.4,111.7,38.3,109.5,36.9,110.9L36.9,110.9z"/>
</g>
<g>
	<path class="st1" d="M257.7,58c-7.9,3.4-15.8,6.8-23.7,10.2c-1.8,0.8-0.2,3.4,1.5,2.6c7.9-3.4,15.8-6.8,23.7-10.2
		C261,59.9,259.5,57.3,257.7,58L257.7,58z"/>
</g>
<g>
	<path class="st1" d="M236.3,90.6c9.1-0.2,18,1,26.8,3.6c1.9,0.5,2.7-2.4,0.8-2.9c-9-2.6-18.2-3.9-27.6-3.7
		C234.4,87.6,234.4,90.6,236.3,90.6L236.3,90.6z"/>
</g>
<g>
	<path class="st1" d="M228,109c4.9,4.6,9.6,9.4,14.2,14.4c1.3,1.4,3.4-0.7,2.1-2.1c-4.6-5-9.3-9.8-14.2-14.4
		C228.7,105.5,226.5,107.6,228,109L228,109z"/>
</g>
</svg>
