<svg id="Layer_1" data-name="Layer 1" xmlns="http://www.w3.org/2000/svg" viewBox="0 0 265.11 128"><defs><style>.cls-1{fill:#fff;}</style></defs><title>GuarderiaBlanco</title><path class="cls-1" d="M5.79,74.8,29.49,85c1.8.8,3.3-1.8,1.5-2.6-7.9-3.5-15.8-6.8-23.7-10.2C5.59,71.4,4,74,5.79,74.8Z" transform="translate(0.01 0)"/><path class="cls-1" d="M28.69,101.7a88.89,88.89,0,0,0-27.6,3.7,1.5,1.5,0,0,0,.8,2.9,90.32,90.32,0,0,1,26.8-3.6,1.5,1.5,0,1,0,0-3Z" transform="translate(0.01 0)"/><path class="cls-1" d="M37,111c-4.9,4.6-9.6,9.4-14.2,14.4-1.3,1.4.8,3.6,2.1,2.1,4.6-5,9.3-9.8,14.2-14.4C40.49,111.8,38.39,109.6,37,111Z" transform="translate(0.01 0)"/><path class="cls-1" d="M257.79,58.1l-23.7,10.2c-1.8.8-.2,3.4,1.5,2.6l23.7-10.2C261.09,60,259.59,57.4,257.79,58.1Z" transform="translate(0.01 0)"/><path class="cls-1" d="M236.39,90.7a87.09,87.09,0,0,1,26.8,3.6,1.5,1.5,0,0,0,.8-2.9,91.73,91.73,0,0,0-27.6-3.7,1.5,1.5,0,0,0,0,3Z" transform="translate(0.01 0)"/><path class="cls-1" d="M228.09,109.1c4.9,4.6,9.6,9.4,14.2,14.4,1.3,1.4,3.4-.7,2.1-2.1-4.6-5-9.3-9.8-14.2-14.4C228.79,105.6,226.59,107.7,228.09,109.1Z" transform="translate(0.01 0)"/><path class="cls-1" d="M73,92.6V90.2h6.4v5.2a16,16,0,0,1-.1,2.3,20.2,20.2,0,0,1-.2,2.2,6.49,6.49,0,0,1-.6,2.2,15.15,15.15,0,0,1-1,1.7,3.55,3.55,0,0,1-1.7,1.2,6.91,6.91,0,0,1-4.9-.1,4.24,4.24,0,0,1-1.8-1.5,9.06,9.06,0,0,1-1.1-2.2,11.28,11.28,0,0,1-.6-3.1l-.3-3.6c0-1.2-.1-2.6-.1-4.2,0-1.9.1-3.6.2-5a17.52,17.52,0,0,1,.9-4.3,6.32,6.32,0,0,1,2.1-3.3,5.13,5.13,0,0,1,3.5-1.2c3,0,4.9,1.8,5.7,5.3l-2.6,1c-.4-2.5-1.5-3.7-3-3.7a2.93,2.93,0,0,0-2.3,1,6.23,6.23,0,0,0-1.3,2.7,21.78,21.78,0,0,0-.5,3.4c-.1,1.1-.1,2.4-.1,3.9a52.23,52.23,0,0,0,.5,7.9c.3,1.9.7,3.2,1.3,3.8a2.62,2.62,0,0,0,2.3,1,2.39,2.39,0,0,0,2.6-1.7,23,23,0,0,0,.6-6.5V92.5H73Z" transform="translate(0.01 0)"/><path class="cls-1" d="M96.09,77V96.1a27.34,27.34,0,0,1-.1,3,11.74,11.74,0,0,1-.4,2.5,4.66,4.66,0,0,1-.9,2,4.36,4.36,0,0,1-1.7,1.2,6.78,6.78,0,0,1-2.7.5,7.62,7.62,0,0,1-2.8-.5,3.84,3.84,0,0,1-1.7-1.3,5.18,5.18,0,0,1-.9-2.1c-.2-.9-.3-1.7-.4-2.4a23.36,23.36,0,0,1-.1-2.9V77H87V96a16.4,16.4,0,0,0,.6,5.4,3.18,3.18,0,0,0,4.38,1,3.31,3.31,0,0,0,1-1,16.4,16.4,0,0,0,.6-5.4V77Z" transform="translate(0.01 0)"/><path class="cls-1" d="M107.69,77l5.6,28h-2.8l-1-5.8h-5.9l-1,5.8h-2.8l5.5-28Zm-3.8,19.9H109l-1.9-10.7c-.1-.4-.3-2.3-.7-5.7h-.1c0,.4-.2,1.3-.3,2.7s-.3,2.3-.4,3.1Z" transform="translate(0.01 0)"/><path class="cls-1" d="M119.59,104.9H117v-28h2.8a10,10,0,0,1,1.9.1,5.48,5.48,0,0,1,1.7.3,3.35,3.35,0,0,1,1.6.7,6.81,6.81,0,0,1,1.2,1.2,5.32,5.32,0,0,1,.9,2,12.26,12.26,0,0,1,.3,2.9,17.41,17.41,0,0,1-.2,2.6,8.18,8.18,0,0,1-.7,2.2,4.36,4.36,0,0,1-1.6,1.7,5.37,5.37,0,0,1-2.7.6l6.2,13.7h-2.7l-5.9-13.7h-.1v13.7Zm0-25.6v9.8h.9c1.8,0,2.9-.3,3.4-1a7.14,7.14,0,0,0,.8-3.9,16.18,16.18,0,0,0-.2-2.6,3.22,3.22,0,0,0-.9-1.5,3.63,3.63,0,0,0-1.4-.6,12.31,12.31,0,0,0-2.1-.1h-.5Z" transform="translate(0.01 0)"/><path class="cls-1" d="M132.59,104.9v-28h2.8a21.5,21.5,0,0,1,3,.2,7.12,7.12,0,0,1,2.4.9,4.63,4.63,0,0,1,1.9,2.2,20,20,0,0,1,1.1,4.1,41.64,41.64,0,0,1,.4,6.6,41.81,41.81,0,0,1-.4,6.8,9.83,9.83,0,0,1-1.4,4.2,5.69,5.69,0,0,1-2.6,2.3,12.5,12.5,0,0,1-4.2.6h-3Zm2.6-25.6v23.2h.7a6.14,6.14,0,0,0,2.5-.5,4.26,4.26,0,0,0,1.7-1.3,5.52,5.52,0,0,0,.9-2.3,16.38,16.38,0,0,0,.4-3.2c.1-1.1.1-2.6.1-4.3,0-2,0-3.6-.1-4.9a23.07,23.07,0,0,0-.5-3.3,4.23,4.23,0,0,0-1.1-2.1,3.63,3.63,0,0,0-1.7-1,8.78,8.78,0,0,0-2.5-.3Z" transform="translate(0.01 0)"/><path class="cls-1" d="M158.19,77v2.4H152v9.9h6v2.4h-6v11h6.2v2.4h-8.8v-28h8.8Z" transform="translate(0.01 0)"/><path class="cls-1" d="M166,104.9h-2.6v-28h2.8a10,10,0,0,1,1.9.1,5.48,5.48,0,0,1,1.7.3,3.35,3.35,0,0,1,1.6.7,6.81,6.81,0,0,1,1.2,1.2,5.32,5.32,0,0,1,.9,2,12.26,12.26,0,0,1,.3,2.9,17.41,17.41,0,0,1-.2,2.6,8.18,8.18,0,0,1-.7,2.2,4.36,4.36,0,0,1-1.6,1.7,5.37,5.37,0,0,1-2.7.6l6.2,13.7h-2.7l-6-13.6H166Zm0-25.6v9.8h.9c1.8,0,2.9-.3,3.4-1a7.14,7.14,0,0,0,.8-3.9,16.18,16.18,0,0,0-.2-2.6,3.22,3.22,0,0,0-.9-1.5,3.63,3.63,0,0,0-1.4-.6,12.31,12.31,0,0,0-2.1-.1H166Z" transform="translate(0.01 0)"/><path class="cls-1" d="M181.59,77v28H179V77Z" transform="translate(0.01 0)"/><path class="cls-1" d="M193.29,77l5.6,28h-2.8l-1-5.8h-6l-1,5.8h-2.8l5.5-28Zm-3.7,19.9h5.1l-1.9-10.7c-.1-.4-.3-2.3-.7-5.7H192c0,.4-.2,1.3-.3,2.7s-.3,2.3-.4,3.1Z" transform="translate(0.01 0)"/><path class="cls-1" d="M128.89,18a9,9,0,1,0-9-9A9,9,0,0,0,128.89,18Zm-6,28,2.9-3.6-6.9-5.8-5.2,6.5a4.5,4.5,0,0,0-.1,5.5l5.4,7.2a4.43,4.43,0,0,0,3.6,1.8,4.61,4.61,0,0,0,2.7-.9,4.47,4.47,0,0,0,.92-6.27l0,0Zm16-9.4L132,42.4l2.9,3.6-3.3,4.4a4.49,4.49,0,0,0,.87,6.28l0,0a4.61,4.61,0,0,0,2.7.9,4.43,4.43,0,0,0,3.6-1.8l5.4-7.2a4.5,4.5,0,0,0-.1-5.5Zm10.7-20.2a4.48,4.48,0,0,0-6.2-1.1l-4.5,3.2a16.66,16.66,0,0,1-19.5,0l-4.5-3.2a4.48,4.48,0,0,0-6.2,1.1,4.61,4.61,0,0,0,1.1,6.3l4.5,3.2a24.4,24.4,0,0,0,6,3.1v3.5H138V29.1a28.19,28.19,0,0,0,6-3.1l4.5-3.2a4.72,4.72,0,0,0,1.1-6.4Z" transform="translate(0.01 0)"/></svg>