<?xml version="1.0" encoding="utf-8"?>
<!-- Generator: Adobe Illustrator 23.0.0, SVG Export Plug-In . SVG Version: 6.00 Build 0)  -->
<svg version="1.1" id="Layer_1" xmlns="http://www.w3.org/2000/svg" xmlns:xlink="http://www.w3.org/1999/xlink" x="0px" y="0px"
	 viewBox="0 0 265 128" style="enable-background:new 0 0 265 128;" xml:space="preserve">
<style type="text/css">
	.st0{fill:#FFC200;}
	.st1{fill:#1F689D;}
</style>
<title>Guarderia_1</title>
<g>
	<path class="st0" d="M5.7,74.7c7.9,3.4,15.8,6.8,23.7,10.2c1.8,0.8,3.3-1.8,1.5-2.6C23,78.8,15.1,75.5,7.2,72.1
		C5.5,71.3,3.9,73.9,5.7,74.7L5.7,74.7z"/>
</g>
<g>
	<path class="st0" d="M28.6,101.6c-9.4-0.2-18.6,1-27.6,3.7c-1.9,0.5-1.1,3.4,0.8,2.9c8.8-2.6,17.7-3.7,26.8-3.6
		C30.6,104.6,30.6,101.6,28.6,101.6L28.6,101.6z"/>
</g>
<g>
	<path class="st0" d="M36.9,110.9c-4.9,4.6-9.6,9.4-14.2,14.4c-1.3,1.4,0.8,3.6,2.1,2.1c4.6-5,9.3-9.8,14.2-14.4
		C40.4,111.7,38.3,109.5,36.9,110.9L36.9,110.9z"/>
</g>
<g>
	<path class="st0" d="M257.7,58c-7.9,3.4-15.8,6.8-23.7,10.2c-1.8,0.8-0.2,3.4,1.5,2.6c7.9-3.4,15.8-6.8,23.7-10.2
		C261,59.9,259.5,57.3,257.7,58L257.7,58z"/>
</g>
<g>
	<path class="st0" d="M236.3,90.6c9.1-0.2,18,1,26.8,3.6c1.9,0.5,2.7-2.4,0.8-2.9c-9-2.6-18.2-3.9-27.6-3.7
		C234.4,87.6,234.4,90.6,236.3,90.6L236.3,90.6z"/>
</g>
<g>
	<path class="st0" d="M228,109c4.9,4.6,9.6,9.4,14.2,14.4c1.3,1.4,3.4-0.7,2.1-2.1c-4.6-5-9.3-9.8-14.2-14.4
		C228.7,105.5,226.5,107.6,228,109L228,109z"/>
</g>
<g>
	<path class="st1" d="M72.9,92.5v-2.4h6.4v5.2c0,0.9,0,1.7-0.1,2.3c0,0.6-0.1,1.4-0.2,2.2c-0.1,0.9-0.3,1.6-0.6,2.2
		c-0.3,0.6-0.6,1.1-1,1.7c-0.4,0.5-1,1-1.7,1.2c-0.7,0.3-1.5,0.4-2.4,0.4c-1,0-1.8-0.2-2.5-0.5c-0.7-0.3-1.3-0.8-1.8-1.5
		c-0.5-0.7-0.8-1.4-1.1-2.2c-0.3-0.8-0.5-1.8-0.6-3.1c-0.1-1.2-0.2-2.4-0.3-3.6c0-1.2-0.1-2.6-0.1-4.2c0-1.9,0.1-3.6,0.2-5
		c0.1-1.4,0.4-2.8,0.9-4.3c0.4-1.4,1.1-2.5,2.1-3.3c0.9-0.8,2.1-1.2,3.5-1.2c3,0,4.9,1.8,5.7,5.3l-2.6,1c-0.4-2.5-1.5-3.7-3-3.7
		c-0.9,0-1.7,0.3-2.3,1c-0.6,0.6-1,1.6-1.3,2.7c-0.3,1.2-0.4,2.3-0.5,3.4c-0.1,1.1-0.1,2.4-0.1,3.9c0,3.4,0.2,6,0.5,7.9
		c0.3,1.9,0.7,3.2,1.3,3.8c0.5,0.7,1.3,1,2.3,1c1.4,0,2.3-0.6,2.6-1.7c0.4-1.1,0.6-3.3,0.6-6.5v-2.1H72.9z"/>
	<path class="st1" d="M96,76.9V96c0,1.2,0,2.2-0.1,3c0,0.8-0.2,1.6-0.4,2.5c-0.2,0.9-0.5,1.5-0.9,2c-0.4,0.5-1,0.9-1.7,1.2
		c-0.7,0.3-1.6,0.5-2.7,0.5c-1.1,0-2-0.2-2.8-0.5c-0.8-0.3-1.3-0.8-1.7-1.3c-0.4-0.5-0.7-1.2-0.9-2.1c-0.2-0.9-0.3-1.7-0.4-2.4
		c-0.1-0.7-0.1-1.7-0.1-2.9V76.9h2.6v19c0,2.6,0.2,4.4,0.6,5.4c0.4,1,1.3,1.5,2.7,1.5c1.4,0,2.3-0.5,2.7-1.5c0.4-1,0.6-2.8,0.6-5.4
		v-19H96z"/>
	<path class="st1" d="M107.6,76.9l5.6,28h-2.8l-1-5.8h-5.9l-1,5.8h-2.8l5.5-28H107.6z M103.8,96.8h5.1l-1.9-10.7
		c-0.1-0.4-0.3-2.3-0.7-5.7h-0.1c0,0.4-0.2,1.3-0.3,2.7c-0.2,1.3-0.3,2.3-0.4,3.1L103.8,96.8z"/>
	<path class="st1" d="M119.5,104.8h-2.6v-28h2.8c0.8,0,1.4,0,1.9,0.1c0.5,0,1.1,0.1,1.7,0.3c0.7,0.1,1.2,0.4,1.6,0.7
		c0.4,0.3,0.8,0.7,1.2,1.2c0.4,0.5,0.7,1.2,0.9,2c0.2,0.8,0.3,1.8,0.3,2.9c0,1-0.1,1.9-0.2,2.6c-0.1,0.8-0.4,1.5-0.7,2.2
		c-0.4,0.7-0.9,1.3-1.6,1.7c-0.7,0.4-1.6,0.6-2.7,0.6l6.2,13.7h-2.7l-5.9-13.7h-0.1V104.8z M119.5,79.2V89h0.9c1.8,0,2.9-0.3,3.4-1
		c0.5-0.7,0.8-2,0.8-3.9c0-1.1-0.1-2-0.2-2.6c-0.2-0.7-0.5-1.1-0.9-1.5c-0.4-0.3-0.9-0.5-1.4-0.6c-0.5-0.1-1.2-0.1-2.1-0.1H119.5z"
		/>
	<path class="st1" d="M132.5,104.8v-28h2.8c1.3,0,2.3,0.1,3,0.2c0.7,0.1,1.5,0.4,2.4,0.9c0.8,0.5,1.5,1.2,1.9,2.2
		c0.4,1,0.8,2.3,1.1,4.1c0.3,1.8,0.4,4,0.4,6.6c0,2.8-0.1,5.1-0.4,6.8c-0.2,1.7-0.7,3.1-1.4,4.2c-0.7,1.1-1.6,1.9-2.6,2.3
		c-1.1,0.4-2.5,0.6-4.2,0.6H132.5z M135.1,79.2v23.2h0.7c1,0,1.8-0.2,2.5-0.5c0.7-0.3,1.2-0.7,1.7-1.3c0.4-0.5,0.7-1.3,0.9-2.3
		c0.2-1,0.4-2.1,0.4-3.2c0.1-1.1,0.1-2.6,0.1-4.3c0-2,0-3.6-0.1-4.9c-0.1-1.3-0.3-2.4-0.5-3.3c-0.2-0.9-0.6-1.6-1.1-2.1
		c-0.5-0.5-1-0.8-1.7-1c-0.6-0.2-1.5-0.3-2.5-0.3H135.1z"/>
	<path class="st1" d="M158.1,76.9v2.4h-6.2v9.9h6v2.4h-6v11h6.2v2.4h-8.8v-28H158.1z"/>
	<path class="st1" d="M165.9,104.8h-2.6v-28h2.8c0.8,0,1.4,0,1.9,0.1c0.5,0,1.1,0.1,1.7,0.3c0.7,0.1,1.2,0.4,1.6,0.7
		c0.4,0.3,0.8,0.7,1.2,1.2c0.4,0.5,0.7,1.2,0.9,2c0.2,0.8,0.3,1.8,0.3,2.9c0,1-0.1,1.9-0.2,2.6c-0.1,0.8-0.4,1.5-0.7,2.2
		c-0.4,0.7-0.9,1.3-1.6,1.7c-0.7,0.4-1.6,0.6-2.7,0.6l6.2,13.7h-2.7L166,91.2h-0.1V104.8z M165.9,79.2V89h0.9c1.8,0,2.9-0.3,3.4-1
		c0.5-0.7,0.8-2,0.8-3.9c0-1.1-0.1-2-0.2-2.6c-0.2-0.7-0.5-1.1-0.9-1.5c-0.4-0.3-0.9-0.5-1.4-0.6c-0.5-0.1-1.2-0.1-2.1-0.1H165.9z"
		/>
	<path class="st1" d="M181.5,76.9v28h-2.6v-28H181.5z"/>
	<path class="st1" d="M193.2,76.9l5.6,28H196l-1-5.8H189l-1,5.8h-2.8l5.5-28H193.2z M189.5,96.8h5.1l-1.9-10.7
		c-0.1-0.4-0.3-2.3-0.7-5.7h-0.1c0,0.4-0.2,1.3-0.3,2.7c-0.2,1.3-0.3,2.3-0.4,3.1L189.5,96.8z"/>
</g>
<g>
	<path class="st1" d="M128.8,17.9c5,0,9-4,9-9s-4-9-9-9c-5,0-9,4-9,9S123.8,17.9,128.8,17.9z M122.8,45.9l2.9-3.6l-6.9-5.8l-5.2,6.5
		c-1.3,1.6-1.3,3.9-0.1,5.5l5.4,7.2c0.9,1.2,2.2,1.8,3.6,1.8c0.9,0,1.9-0.3,2.7-0.9c2-1.5,2.4-4.3,0.9-6.3L122.8,45.9z M138.8,36.5
		l-6.9,5.8l2.9,3.6l-3.3,4.4c-1.5,2-1.1,4.8,0.9,6.3c0.8,0.6,1.8,0.9,2.7,0.9c1.4,0,2.7-0.6,3.6-1.8l5.4-7.2
		c1.2-1.6,1.2-3.9-0.1-5.5L138.8,36.5L138.8,36.5z M149.5,16.3c-1.4-2-4.2-2.5-6.2-1.1l-4.5,3.2c-5.8,4.2-13.7,4.2-19.5,0l-4.5-3.2
		c-2-1.4-4.7-0.9-6.2,1.1c-1.4,2-0.9,4.8,1.1,6.3l4.5,3.2c1.9,1.3,3.9,2.4,6,3.1v3.5h17.7V29c2.1-0.8,4.1-1.8,6-3.1l4.5-3.2
		C150.4,21.2,150.9,18.4,149.5,16.3L149.5,16.3z"/>
</g>
</svg>
