<svg xmlns="http://www.w3.org/2000/svg" viewBox="0 0 229.29 147.38"><defs><style>.cls-1{fill:#1f689d;}.cls-2{fill:#ffc200;}</style></defs><title>Guarderia_1</title><g id="Layer_2" data-name="Layer 2"><g id="Layer_1-2" data-name="Layer 1"><path class="cls-1" d="M56.68,109.27V106.9H63V112c0,.92,0,1.68,0,2.3s-.12,1.35-.23,2.22a7.47,7.47,0,0,1-.55,2.14,8.35,8.35,0,0,1-1,1.67,3.94,3.94,0,0,1-1.68,1.22,6.7,6.7,0,0,1-2.44.41,6.3,6.3,0,0,1-2.52-.47,4.16,4.16,0,0,1-1.78-1.48,9.64,9.64,0,0,1-1.12-2.22,14.23,14.23,0,0,1-.65-3q-.23-1.84-.3-3.57c0-1.15-.07-2.55-.07-4.2a48.21,48.21,0,0,1,.22-5,21.61,21.61,0,0,1,.89-4.25,6.64,6.64,0,0,1,2.07-3.28,5.41,5.41,0,0,1,3.52-1.14q4.47,0,5.69,5.25l-2.55,1c-.44-2.49-1.46-3.74-3-3.74a2.93,2.93,0,0,0-2.26,1,5.88,5.88,0,0,0-1.28,2.74,24.34,24.34,0,0,0-.5,3.37c-.07,1.06-.11,2.34-.11,3.85a51.14,51.14,0,0,0,.47,7.88A8.63,8.63,0,0,0,55,118.48a2.75,2.75,0,0,0,2.26,1,2.46,2.46,0,0,0,2.63-1.65,24.14,24.14,0,0,0,.55-6.45v-2.11Z"/><path class="cls-1" d="M79.73,93.73v19c0,1.21,0,2.2-.08,3a13.38,13.38,0,0,1-.4,2.46,5.38,5.38,0,0,1-1,2,4.72,4.72,0,0,1-1.72,1.24,7.54,7.54,0,0,1-5.45,0,4.61,4.61,0,0,1-1.72-1.26,5.11,5.11,0,0,1-.91-2.07,15.31,15.31,0,0,1-.39-2.44c0-.75-.07-1.72-.07-2.93v-19h2.59v18.9A17,17,0,0,0,71.2,118a3.14,3.14,0,0,0,5.35,0,16.6,16.6,0,0,0,.59-5.35V93.73Z"/><path class="cls-1" d="M91.23,93.73l5.59,27.9H94.05l-1-5.74H87.09l-1,5.74H83.32l5.47-27.9Zm-3.7,19.9H92.6l-1.85-10.69c-.07-.37-.31-2.27-.7-5.7H89.9c-.05.45-.15,1.33-.31,2.65s-.3,2.34-.43,3Z"/><path class="cls-1" d="M103.11,121.63h-2.59V93.73h2.78c.78,0,1.43,0,1.94,0A15.71,15.71,0,0,1,107,94a4,4,0,0,1,1.61.69,6.19,6.19,0,0,1,1.2,1.24,5,5,0,0,1,.85,2,12.92,12.92,0,0,1,.28,2.89,14.75,14.75,0,0,1-.21,2.63,8,8,0,0,1-.74,2.22,3.91,3.91,0,0,1-1.62,1.68,5.77,5.77,0,0,1-2.69.65l6.18,13.62h-2.73L103.18,108h-.07Zm0-25.53v9.76H104c1.75,0,2.89-.34,3.42-1s.79-2,.79-3.91a11.46,11.46,0,0,0-.24-2.61,2.52,2.52,0,0,0-.87-1.46,3.33,3.33,0,0,0-1.38-.63,11.85,11.85,0,0,0-2.13-.14Z"/><path class="cls-1" d="M116.1,121.63V93.73h2.81a21.54,21.54,0,0,1,3,.16,6.36,6.36,0,0,1,2.36.93,4.74,4.74,0,0,1,1.91,2.2,17.2,17.2,0,0,1,1.09,4.11,40.15,40.15,0,0,1,.45,6.55,51.06,51.06,0,0,1-.37,6.8,11,11,0,0,1-1.39,4.24,5.39,5.39,0,0,1-2.63,2.28,11.81,11.81,0,0,1-4.24.63Zm2.59-25.53v23.16h.74a6,6,0,0,0,2.49-.47,4.26,4.26,0,0,0,1.65-1.25,5.57,5.57,0,0,0,1-2.33,24.87,24.87,0,0,0,.42-3.21c.07-1.1.11-2.55.11-4.32,0-2,0-3.64-.15-4.91a18.46,18.46,0,0,0-.5-3.29,4.34,4.34,0,0,0-1.07-2.09,4.12,4.12,0,0,0-1.68-1,8.71,8.71,0,0,0-2.52-.29Z"/><path class="cls-1" d="M141.59,93.73V96.1h-6.18v9.84h6v2.37h-6v11h6.18v2.37h-8.77V93.73Z"/><path class="cls-1" d="M149.4,121.63h-2.59V93.73h2.77c.79,0,1.44,0,1.94,0a15.05,15.05,0,0,1,1.74.26,4,4,0,0,1,1.61.69A6.5,6.5,0,0,1,156.08,96a5.19,5.19,0,0,1,.85,2,13.59,13.59,0,0,1,.27,2.89,14.82,14.82,0,0,1-.2,2.63,8,8,0,0,1-.74,2.22,3.94,3.94,0,0,1-1.63,1.68A5.7,5.7,0,0,1,152,108l6.18,13.62h-2.74L149.47,108h-.07Zm0-25.53v9.76h.92c1.75,0,2.89-.34,3.42-1s.8-2,.8-3.91a11.46,11.46,0,0,0-.24-2.61,2.52,2.52,0,0,0-.87-1.46,3.31,3.31,0,0,0-1.39-.63,11.7,11.7,0,0,0-2.13-.14Z"/><path class="cls-1" d="M165,93.73v27.9h-2.59V93.73Z"/><path class="cls-1" d="M176.59,93.73l5.59,27.9H179.4l-1-5.74h-5.92l-1,5.74h-2.78l5.48-27.9Zm-3.7,19.9H178l-1.85-10.69c-.07-.37-.31-2.27-.7-5.7h-.15c0,.45-.16,1.33-.32,2.65s-.3,2.34-.42,3Z"/><path class="cls-1" d="M116.11,20.08a10,10,0,1,0-10-10A10,10,0,0,0,116.11,20.08ZM109.4,51.31l3.22-4-7.72-6.43-5.76,7.21a5,5,0,0,0-.1,6.15l6,8a5,5,0,0,0,8-6Zm17.91-10.45-7.72,6.43,3.22,4-3.69,4.92a5,5,0,1,0,8,6l6-8a5,5,0,0,0-.1-6.15l-5.76-7.21Zm11.86-22.51a4.88,4.88,0,0,0-6.86-1.23l-5,3.58a18.75,18.75,0,0,1-21.78,0l-5-3.56a4.87,4.87,0,0,0-6.86,1.21,5.1,5.1,0,0,0,1.2,7l5,3.57a28.38,28.38,0,0,0,6.7,3.5V36.3h19.7V32.44a28.79,28.79,0,0,0,6.7-3.51l5-3.57a5.09,5.09,0,0,0,1.19-7Z"/><path class="cls-2" d="M5.7,84.36,29.33,94.48c1.75.75,3.28-1.83,1.51-2.59L7.22,81.77C5.46,81,3.93,83.6,5.7,84.36Z"/><path class="cls-2" d="M28.55,111.2a91.06,91.06,0,0,0-27.5,3.67c-1.85.54-1.06,3.44.8,2.89a88.66,88.66,0,0,1,26.7-3.56,1.5,1.5,0,0,0,0-3Z"/><path class="cls-2" d="M34.77,130.45q-7.34,6.92-14.17,14.33c-1.3,1.42.81,3.55,2.13,2.12q6.82-7.41,14.16-14.33c1.41-1.33-.71-3.45-2.12-2.12Z"/><path class="cls-2" d="M222.07,77.77,198.44,87.89c-1.77.76-.24,3.35,1.52,2.59l23.62-10.12c1.77-.76.25-3.35-1.51-2.59Z"/><path class="cls-2" d="M200.73,110.2a88.62,88.62,0,0,1,26.7,3.56,1.5,1.5,0,0,0,.8-2.89,91,91,0,0,0-27.5-3.67c-1.93,0-1.93,3,0,3Z"/><path class="cls-2" d="M192.39,128.57q7.34,6.92,14.17,14.33c1.31,1.43,3.43-.7,2.12-2.12q-6.83-7.41-14.17-14.33c-1.4-1.33-3.53.79-2.12,2.12Z"/></g></g></svg>