<svg id="Layer_1" data-name="Layer 1" xmlns="http://www.w3.org/2000/svg" viewBox="0 0 265.07 120.1"><defs><style>.cls-1{fill:#fff;}</style></defs><title>SeguridadBlanco</title><path class="cls-1" d="M5.7,74.7,29.4,84.9c1.8.8,3.3-1.8,1.5-2.6C23,78.8,15.1,75.5,7.2,72.1c-1.7-.8-3.3,1.8-1.5,2.6Z" transform="translate(0.09 -7.8)"/><path class="cls-1" d="M28.6,101.6A88.85,88.85,0,0,0,1,105.3a1.5,1.5,0,0,0,.8,2.9,90.25,90.25,0,0,1,26.8-3.6,1.5,1.5,0,0,0,0-3Z" transform="translate(0.09 -7.8)"/><path class="cls-1" d="M36.9,110.9c-4.9,4.6-9.6,9.4-14.2,14.4-1.3,1.4.8,3.6,2.1,2.1,4.6-5,9.3-9.8,14.2-14.4,1.4-1.3-.7-3.5-2.1-2.1Z" transform="translate(0.09 -7.8)"/><path class="cls-1" d="M257.7,58,234,68.2c-1.8.8-.2,3.4,1.5,2.6l23.7-10.2c1.8-.7.3-3.3-1.5-2.6Z" transform="translate(0.09 -7.8)"/><path class="cls-1" d="M236.3,90.6a87.11,87.11,0,0,1,26.8,3.6,1.5,1.5,0,0,0,.8-2.9,91.92,91.92,0,0,0-27.6-3.7,1.5,1.5,0,0,0,0,3Z" transform="translate(0.09 -7.8)"/><path class="cls-1" d="M228,109c4.9,4.6,9.6,9.4,14.2,14.4,1.3,1.4,3.4-.7,2.1-2.1-4.6-5-9.3-9.8-14.2-14.4-1.4-1.4-3.6.7-2.1,2.1Z" transform="translate(0.09 -7.8)"/><path class="cls-1" d="M79.6,78.3v3.3a5.63,5.63,0,0,0-4.1-2.3,3.47,3.47,0,0,0-2.9,1.3,5,5,0,0,0-1.1,3.2,4.64,4.64,0,0,0,.4,2.1,4.72,4.72,0,0,0,1.2,1.8A14.27,14.27,0,0,0,74.5,89c.4.3,1,.7,1.8,1.3s1.4,1,1.8,1.3a10.57,10.57,0,0,1,1.4,1.5,5.64,5.64,0,0,1,1.1,2,9.35,9.35,0,0,1,.4,2.5,8.64,8.64,0,0,1-1.9,5.6,6.17,6.17,0,0,1-5.1,2.3,7.22,7.22,0,0,1-4.4-1.4v-3.4a6.2,6.2,0,0,0,4.5,2.3,3.75,3.75,0,0,0,3.1-1.5A5.24,5.24,0,0,0,78.3,98a6.45,6.45,0,0,0-.3-2,3.91,3.91,0,0,0-1-1.6,13.1,13.1,0,0,0-1.3-1.2c-.4-.3-.9-.7-1.6-1.2-.2-.1-.4-.3-.5-.3-.7-.5-1.3-1-1.8-1.3l-1.5-1.5a7.19,7.19,0,0,1-1.2-2.1,7.1,7.1,0,0,1-.4-2.6A8.53,8.53,0,0,1,70.4,79a5.61,5.61,0,0,1,4.7-2.2A7.6,7.6,0,0,1,79.6,78.3Z" transform="translate(0.09 -7.8)"/><path class="cls-1" d="M93.8,77.2v2.4H87.6v9.8h6v2.4h-6v11h6.2v2.4H85v-28Z" transform="translate(0.09 -7.8)"/><path class="cls-1" d="M103.5,92.7V90.3h6.4v5.1a15.52,15.52,0,0,1-.1,2.3,19.88,19.88,0,0,1-.2,2.2,5.25,5.25,0,0,1-.6,2.1,15.05,15.05,0,0,1-1,1.7,4.34,4.34,0,0,1-1.7,1.2,6.05,6.05,0,0,1-2.4.4,6.18,6.18,0,0,1-2.5-.5,4.28,4.28,0,0,1-1.8-1.5,9.06,9.06,0,0,1-1.1-2.2,11.33,11.33,0,0,1-.6-3.1l-.3-3.6c0-1.1-.1-2.5-.1-4.2,0-1.9.1-3.6.2-5a17.39,17.39,0,0,1,.9-4.3,6.31,6.31,0,0,1,2.1-3.3,5.07,5.07,0,0,1,3.5-1.1c3,0,4.9,1.8,5.7,5.3l-2.6,1c-.4-2.5-1.5-3.7-3-3.7a2.9,2.9,0,0,0-2.3,1,6.2,6.2,0,0,0-1.3,2.7,21.49,21.49,0,0,0-.5,3.4c-.1,1.1-.1,2.3-.1,3.8a52,52,0,0,0,.5,7.9,7.83,7.83,0,0,0,1.3,3.8,2.64,2.64,0,0,0,2.3,1c1.4,0,2.3-.5,2.6-1.6a22.33,22.33,0,0,0,.6-6.5V92.5h-3.9Z" transform="translate(0.09 -7.8)"/><path class="cls-1" d="M125.9,77.2V96.3a26.28,26.28,0,0,1-.1,3,11.78,11.78,0,0,1-.4,2.5,4.65,4.65,0,0,1-.9,2,4.34,4.34,0,0,1-1.7,1.2,6.84,6.84,0,0,1-2.7.5,7.78,7.78,0,0,1-2.8-.5,3.86,3.86,0,0,1-1.7-1.3,5.12,5.12,0,0,1-.9-2.1c-.2-.9-.3-1.7-.4-2.4a23.58,23.58,0,0,1-.1-2.9V77.2h2.6V96.1a15.77,15.77,0,0,0,.6,5.3,3.18,3.18,0,0,0,5.4,0,16.17,16.17,0,0,0,.6-5.3V77.2Z" transform="translate(0.09 -7.8)"/><path class="cls-1" d="M133.5,105.1h-2.6V77.2h2.8a10.32,10.32,0,0,1,1.9.1,5.55,5.55,0,0,1,1.7.3,3.38,3.38,0,0,1,1.6.7,6.79,6.79,0,0,1,1.2,1.2,5.28,5.28,0,0,1,.9,2,12.31,12.31,0,0,1,.3,2.9,18.36,18.36,0,0,1-.2,2.6,8.08,8.08,0,0,1-.7,2.2,3.75,3.75,0,0,1-1.6,1.7,5.4,5.4,0,0,1-2.7.6l6.2,13.6h-2.7l-5.9-13.7h-.1v13.7Zm0-25.5v9.8h.9c1.8,0,2.9-.3,3.4-1a7.08,7.08,0,0,0,.8-3.9,16.12,16.12,0,0,0-.2-2.6,2.55,2.55,0,0,0-.9-1.5,3.51,3.51,0,0,0-1.4-.6,12.17,12.17,0,0,0-2.1-.1h-.5Z" transform="translate(0.09 -7.8)"/><path class="cls-1" d="M148.3,77.2v27.9h-2.6V77.2Z" transform="translate(0.09 -7.8)"/><path class="cls-1" d="M153.5,105.1V77.2h2.8a21.13,21.13,0,0,1,3,.2,7.19,7.19,0,0,1,2.4.9,4.59,4.59,0,0,1,1.9,2.2,19.48,19.48,0,0,1,1.1,4.1,41.1,41.1,0,0,1,.4,6.5,42,42,0,0,1-.4,6.8,9.92,9.92,0,0,1-1.4,4.2,5.68,5.68,0,0,1-2.6,2.3,12.46,12.46,0,0,1-4.2.6h-3Zm2.6-25.5v23.2h.7a6.18,6.18,0,0,0,2.5-.5,3.44,3.44,0,0,0,1.6-1.3,5.51,5.51,0,0,0,.9-2.3,16.48,16.48,0,0,0,.4-3.2c.1-1.1.1-2.6.1-4.3,0-2,0-3.6-.1-4.9a23.24,23.24,0,0,0-.5-3.3,4.22,4.22,0,0,0-1.1-2.1,3.67,3.67,0,0,0-1.7-1,8.52,8.52,0,0,0-2.5-.3Z" transform="translate(0.09 -7.8)"/><path class="cls-1" d="M175.2,77.2l5.6,27.9H178l-1-5.7h-5.9l-1,5.7h-2.8l5.5-27.9Zm-3.7,19.9h5.1l-1.9-10.7c-.1-.4-.3-2.3-.7-5.7h-.1c0,.4-.2,1.3-.3,2.6s-.3,2.3-.4,3.1Z" transform="translate(0.09 -7.8)"/><path class="cls-1" d="M183.8,105.1V77.2h2.8a21.13,21.13,0,0,1,3,.2,7.19,7.19,0,0,1,2.4.9,4.59,4.59,0,0,1,1.9,2.2,19.48,19.48,0,0,1,1.1,4.1,41.1,41.1,0,0,1,.4,6.5,42,42,0,0,1-.4,6.8,9.92,9.92,0,0,1-1.4,4.2,5.68,5.68,0,0,1-2.6,2.3,12.46,12.46,0,0,1-4.2.6h-3Zm2.5-25.5v23.2h.7a6.18,6.18,0,0,0,2.5-.5,3.44,3.44,0,0,0,1.6-1.3,5.51,5.51,0,0,0,.9-2.3,16.48,16.48,0,0,0,.4-3.2c.1-1.1.1-2.6.1-4.3,0-2,0-3.6-.1-4.9a23.24,23.24,0,0,0-.5-3.3,4.22,4.22,0,0,0-1.1-2.1,3.67,3.67,0,0,0-1.7-1,8.52,8.52,0,0,0-2.5-.3Z" transform="translate(0.09 -7.8)"/><path class="cls-1" d="M133.3,7.8H107.8a4.23,4.23,0,0,0-4.2,4.2V37.5a4.23,4.23,0,0,0,4.2,4.2h25.5a4.23,4.23,0,0,0,4.2-4.2V12a4.23,4.23,0,0,0-4.2-4.2Zm17,3.2-9.7,6.7V31.6l9.7,6.7a2.78,2.78,0,0,0,4.4-2.3V13.3A2.81,2.81,0,0,0,150.3,11Z" transform="translate(0.09 -7.8)"/></svg>