<?xml version="1.0" encoding="utf-8"?>
<!-- Generator: Adobe Illustrator 23.0.0, SVG Export Plug-In . SVG Version: 6.00 Build 0)  -->
<svg version="1.1" id="Layer_1" xmlns="http://www.w3.org/2000/svg" xmlns:xlink="http://www.w3.org/1999/xlink" x="0px" y="0px"
	 viewBox="0 0 265 128" style="enable-background:new 0 0 265 128;" xml:space="preserve">
<style type="text/css">
	.st0{fill:#FFC200;}
	.st1{fill:#1F689D;}
</style>
<title>Seguridad_1</title>
<g>
	<path class="st0" d="M5.7,74.7c7.9,3.4,15.8,6.8,23.7,10.2c1.8,0.8,3.3-1.8,1.5-2.6C23,78.8,15.1,75.5,7.2,72.1
		C5.5,71.3,3.9,73.9,5.7,74.7L5.7,74.7z"/>
</g>
<g>
	<path class="st0" d="M28.6,101.6c-9.4-0.2-18.6,1-27.6,3.7c-1.9,0.5-1.1,3.4,0.8,2.9c8.8-2.6,17.7-3.7,26.8-3.6
		C30.6,104.6,30.6,101.6,28.6,101.6L28.6,101.6z"/>
</g>
<g>
	<path class="st0" d="M36.9,110.9c-4.9,4.6-9.6,9.4-14.2,14.4c-1.3,1.4,0.8,3.6,2.1,2.1c4.6-5,9.3-9.8,14.2-14.4
		C40.4,111.7,38.3,109.5,36.9,110.9L36.9,110.9z"/>
</g>
<g>
	<path class="st0" d="M257.7,58c-7.9,3.4-15.8,6.8-23.7,10.2c-1.8,0.8-0.2,3.4,1.5,2.6c7.9-3.4,15.8-6.8,23.7-10.2
		C261,59.9,259.5,57.3,257.7,58L257.7,58z"/>
</g>
<g>
	<path class="st0" d="M236.3,90.6c9.1-0.2,18,1,26.8,3.6c1.9,0.5,2.7-2.4,0.8-2.9c-9-2.6-18.2-3.9-27.6-3.7
		C234.4,87.6,234.4,90.6,236.3,90.6L236.3,90.6z"/>
</g>
<g>
	<path class="st0" d="M228,109c4.9,4.6,9.6,9.4,14.2,14.4c1.3,1.4,3.4-0.7,2.1-2.1c-4.6-5-9.3-9.8-14.2-14.4
		C228.7,105.5,226.5,107.6,228,109L228,109z"/>
</g>
<g>
	<path class="st1" d="M79.6,78.3v3.3c-1.3-1.5-2.7-2.3-4.1-2.3c-1.2,0-2.2,0.4-2.9,1.3c-0.7,0.9-1.1,1.9-1.1,3.2
		c0,0.8,0.1,1.5,0.4,2.1c0.2,0.6,0.6,1.2,1.2,1.8c0.6,0.6,1,1,1.4,1.3c0.4,0.3,1,0.7,1.8,1.3c0.8,0.5,1.4,1,1.8,1.3s0.9,0.9,1.4,1.5
		c0.5,0.6,0.9,1.3,1.1,2c0.2,0.7,0.4,1.6,0.4,2.5c0,2.1-0.6,4-1.9,5.6c-1.3,1.6-3,2.3-5.1,2.3c-1.7,0-3.2-0.5-4.4-1.4v-3.4
		c1.4,1.5,2.9,2.3,4.5,2.3c1.3,0,2.3-0.5,3.1-1.5c0.8-1,1.1-2.1,1.1-3.5c0-0.7-0.1-1.4-0.3-2c-0.2-0.6-0.5-1.1-1-1.6
		c-0.5-0.5-0.9-0.9-1.3-1.2c-0.4-0.3-0.9-0.7-1.6-1.2c-0.2-0.1-0.4-0.3-0.5-0.3c-0.7-0.5-1.3-1-1.8-1.3c-0.4-0.4-0.9-0.9-1.5-1.5
		c-0.5-0.6-0.9-1.3-1.2-2.1s-0.4-1.6-0.4-2.6c0-2,0.6-3.7,1.7-5.2c1.2-1.5,2.7-2.2,4.7-2.2C76.7,76.8,78.2,77.3,79.6,78.3z"/>
	<path class="st1" d="M93.8,77.2v2.4h-6.2v9.8h6v2.4h-6v11h6.2v2.4H85V77.2H93.8z"/>
	<path class="st1" d="M103.5,92.7v-2.4h6.4v5.1c0,0.9,0,1.7-0.1,2.3c0,0.6-0.1,1.4-0.2,2.2c-0.1,0.9-0.3,1.6-0.6,2.1
		c-0.3,0.6-0.6,1.1-1,1.7c-0.4,0.5-1,0.9-1.7,1.2c-0.7,0.3-1.5,0.4-2.4,0.4c-1,0-1.8-0.2-2.5-0.5c-0.7-0.3-1.3-0.8-1.8-1.5
		c-0.5-0.7-0.8-1.4-1.1-2.2c-0.3-0.8-0.5-1.8-0.6-3.1c-0.1-1.2-0.2-2.4-0.3-3.6c0-1.1-0.1-2.5-0.1-4.2c0-1.9,0.1-3.6,0.2-5
		c0.1-1.4,0.4-2.8,0.9-4.3c0.4-1.4,1.1-2.5,2.1-3.3c0.9-0.8,2.1-1.1,3.5-1.1c3,0,4.9,1.8,5.7,5.3l-2.6,1c-0.4-2.5-1.5-3.7-3-3.7
		c-0.9,0-1.7,0.3-2.3,1c-0.6,0.6-1,1.6-1.3,2.7c-0.3,1.2-0.4,2.3-0.5,3.4c-0.1,1.1-0.1,2.3-0.1,3.8c0,3.4,0.2,6,0.5,7.9
		c0.3,1.9,0.7,3.1,1.3,3.8c0.5,0.7,1.3,1,2.3,1c1.4,0,2.3-0.5,2.6-1.6c0.4-1.1,0.6-3.2,0.6-6.5v-2.1H103.5z"/>
	<path class="st1" d="M125.9,77.2v19.1c0,1.2,0,2.2-0.1,3c0,0.8-0.2,1.6-0.4,2.5c-0.2,0.9-0.5,1.5-0.9,2c-0.4,0.5-1,0.9-1.7,1.2
		s-1.6,0.5-2.7,0.5c-1.1,0-2-0.2-2.8-0.5c-0.8-0.3-1.3-0.8-1.7-1.3c-0.4-0.5-0.7-1.2-0.9-2.1s-0.3-1.7-0.4-2.4
		c-0.1-0.7-0.1-1.7-0.1-2.9V77.2h2.6v18.9c0,2.6,0.2,4.3,0.6,5.3c0.4,1,1.3,1.5,2.7,1.5c1.4,0,2.3-0.5,2.7-1.5s0.6-2.8,0.6-5.3V77.2
		H125.9z"/>
	<path class="st1" d="M133.5,105.1h-2.6V77.2h2.8c0.8,0,1.4,0,1.9,0.1c0.5,0,1.1,0.1,1.7,0.3c0.7,0.1,1.2,0.4,1.6,0.7
		c0.4,0.3,0.8,0.7,1.2,1.2c0.4,0.5,0.7,1.2,0.9,2c0.2,0.8,0.3,1.8,0.3,2.9c0,1-0.1,1.9-0.2,2.6c-0.1,0.8-0.4,1.5-0.7,2.2
		s-0.9,1.3-1.6,1.7c-0.7,0.4-1.6,0.6-2.7,0.6l6.2,13.6h-2.7l-5.9-13.7h-0.1V105.1z M133.5,79.6v9.8h0.9c1.8,0,2.9-0.3,3.4-1
		c0.5-0.7,0.8-2,0.8-3.9c0-1.1-0.1-2-0.2-2.6c-0.2-0.7-0.4-1.1-0.9-1.5c-0.4-0.3-0.9-0.5-1.4-0.6c-0.5-0.1-1.2-0.1-2.1-0.1H133.5z"
		/>
	<path class="st1" d="M148.3,77.2v27.9h-2.6V77.2H148.3z"/>
	<path class="st1" d="M153.5,105.1V77.2h2.8c1.3,0,2.3,0.1,3,0.2c0.7,0.1,1.5,0.4,2.4,0.9c0.8,0.5,1.5,1.2,1.9,2.2
		c0.4,1,0.8,2.3,1.1,4.1s0.4,4,0.4,6.5c0,2.8-0.1,5.1-0.4,6.8c-0.2,1.7-0.7,3.1-1.4,4.2c-0.7,1.1-1.6,1.9-2.6,2.3
		c-1.1,0.4-2.5,0.6-4.2,0.6H153.5z M156.1,79.6v23.2h0.7c1,0,1.8-0.2,2.5-0.5c0.7-0.3,1.2-0.7,1.6-1.3c0.4-0.5,0.7-1.3,0.9-2.3
		c0.2-1,0.4-2.1,0.4-3.2c0.1-1.1,0.1-2.6,0.1-4.3c0-2,0-3.6-0.1-4.9c-0.1-1.3-0.3-2.4-0.5-3.3s-0.6-1.6-1.1-2.1
		c-0.5-0.5-1-0.8-1.7-1c-0.6-0.2-1.5-0.3-2.5-0.3H156.1z"/>
	<path class="st1" d="M175.2,77.2l5.6,27.9H178l-1-5.7h-5.9l-1,5.7h-2.8l5.5-27.9H175.2z M171.5,97.1h5.1l-1.9-10.7
		c-0.1-0.4-0.3-2.3-0.7-5.7h-0.1c0,0.4-0.2,1.3-0.3,2.6c-0.2,1.3-0.3,2.3-0.4,3.1L171.5,97.1z"/>
	<path class="st1" d="M183.8,105.1V77.2h2.8c1.3,0,2.3,0.1,3,0.2c0.7,0.1,1.5,0.4,2.4,0.9c0.8,0.5,1.5,1.2,1.9,2.2
		c0.4,1,0.8,2.3,1.1,4.1c0.3,1.8,0.4,4,0.4,6.5c0,2.8-0.1,5.1-0.4,6.8c-0.2,1.7-0.7,3.1-1.4,4.2c-0.7,1.1-1.6,1.9-2.6,2.3
		c-1.1,0.4-2.5,0.6-4.2,0.6H183.8z M186.3,79.6v23.2h0.7c1,0,1.8-0.2,2.5-0.5c0.7-0.3,1.2-0.7,1.6-1.3c0.4-0.5,0.7-1.3,0.9-2.3
		c0.2-1,0.4-2.1,0.4-3.2c0.1-1.1,0.1-2.6,0.1-4.3c0-2,0-3.6-0.1-4.9c-0.1-1.3-0.3-2.4-0.5-3.3s-0.6-1.6-1.1-2.1
		c-0.5-0.5-1-0.8-1.7-1c-0.6-0.2-1.5-0.3-2.5-0.3H186.3z"/>
</g>
<g>
	<path class="st1" d="M133.3,7.8h-25.5c-2.3,0-4.2,1.9-4.2,4.2v25.5c0,2.3,1.9,4.2,4.2,4.2h25.5c2.3,0,4.2-1.9,4.2-4.2V12
		C137.5,9.7,135.6,7.8,133.3,7.8L133.3,7.8z M150.3,11l-9.7,6.7v13.9l9.7,6.7c1.9,1.3,4.4,0,4.4-2.3V13.3
		C154.7,11.1,152.2,9.7,150.3,11z"/>
</g>
</svg>
