<svg xmlns="http://www.w3.org/2000/svg" viewBox="0 0 229.29 121.5"><defs><style>.cls-1{fill:#1f689d;}.cls-2{fill:#ffc200;}</style></defs><title>Seguridad_1</title><g id="Layer_2" data-name="Layer 2"><g id="Layer_1-2" data-name="Layer 1"><path class="cls-1" d="M59.1,68v3.29A5.6,5.6,0,0,0,55,69a3.62,3.62,0,0,0-2.94,1.31A4.81,4.81,0,0,0,51,73.51a6.07,6.07,0,0,0,.35,2.09,5.09,5.09,0,0,0,1.2,1.78,16.78,16.78,0,0,0,1.41,1.25c.37.29,1,.71,1.81,1.28a21.83,21.83,0,0,1,1.8,1.33A14.34,14.34,0,0,1,59,82.7a6.08,6.08,0,0,1,1.15,2,8,8,0,0,1,.37,2.48,8.48,8.48,0,0,1-1.93,5.57,6.24,6.24,0,0,1-5.06,2.35,7.07,7.07,0,0,1-4.41-1.41V90.34a6.15,6.15,0,0,0,4.52,2.26,3.74,3.74,0,0,0,3.1-1.46,5.21,5.21,0,0,0,1.11-3.46,5.84,5.84,0,0,0-.31-2,4.81,4.81,0,0,0-1-1.65,12.58,12.58,0,0,0-1.29-1.22c-.4-.31-.94-.71-1.63-1.2l-.48-.33c-.74-.52-1.33-1-1.78-1.34a13.32,13.32,0,0,1-1.46-1.46,5.82,5.82,0,0,1-1.17-2,8.67,8.67,0,0,1-.36-2.59A8.13,8.13,0,0,1,50,68.68a5.64,5.64,0,0,1,4.67-2.2A7.65,7.65,0,0,1,59.1,68Z"/><path class="cls-1" d="M73.31,66.85v2.37H67.13v9.84h6v2.37h-6V92.38h6.18v2.37H64.54V66.85Z"/><path class="cls-1" d="M83,82.39V80H89.4v5.14c0,.92,0,1.68-.05,2.3s-.11,1.36-.23,2.22a7.39,7.39,0,0,1-.55,2.14,8.08,8.08,0,0,1-1,1.67,3.94,3.94,0,0,1-1.68,1.22,6.7,6.7,0,0,1-2.44.41,6.51,6.51,0,0,1-2.52-.46,4.15,4.15,0,0,1-1.77-1.48A9.17,9.17,0,0,1,78,91a14.09,14.09,0,0,1-.65-3q-.23-1.84-.3-3.57C77,83.18,77,81.79,77,80.13a47.87,47.87,0,0,1,.22-5,22.29,22.29,0,0,1,.89-4.26,6.56,6.56,0,0,1,2.07-3.27,5.36,5.36,0,0,1,3.52-1.15q4.47,0,5.69,5.25l-2.55,1q-.66-3.74-3-3.73a3,3,0,0,0-2.26,1,5.79,5.79,0,0,0-1.28,2.74,25.56,25.56,0,0,0-.5,3.36c-.07,1.06-.11,2.35-.11,3.85a51.05,51.05,0,0,0,.47,7.88,8.66,8.66,0,0,0,1.27,3.81,2.75,2.75,0,0,0,2.26,1A2.46,2.46,0,0,0,86.26,91a24.09,24.09,0,0,0,.55-6.45V82.39Z"/><path class="cls-1" d="M105.35,66.85V85.9c0,1.21,0,2.21-.08,3a12.58,12.58,0,0,1-.4,2.46,5.1,5.1,0,0,1-1,2,4.6,4.6,0,0,1-1.72,1.24,7.54,7.54,0,0,1-5.45,0A4.5,4.5,0,0,1,95,93.34a5.11,5.11,0,0,1-.91-2.07,15.14,15.14,0,0,1-.39-2.44c0-.74-.07-1.72-.07-2.93V66.85h2.59V85.76a17,17,0,0,0,.57,5.34,3.14,3.14,0,0,0,5.35,0,16.56,16.56,0,0,0,.59-5.34V66.85Z"/><path class="cls-1" d="M113,94.75h-2.59V66.85h2.77c.79,0,1.44,0,1.94.06a13,13,0,0,1,1.74.25,4,4,0,0,1,1.61.69,6.5,6.5,0,0,1,1.21,1.24,5.17,5.17,0,0,1,.85,2,13.43,13.43,0,0,1,.27,2.88,14.74,14.74,0,0,1-.2,2.63,7.74,7.74,0,0,1-.74,2.22,3.83,3.83,0,0,1-1.63,1.68,5.61,5.61,0,0,1-2.68.65l6.18,13.62H119l-5.92-13.66H113Zm0-25.53V79h.92q2.63,0,3.42-1c.53-.68.8-2,.8-3.91a11.31,11.31,0,0,0-.24-2.6A2.55,2.55,0,0,0,117,70a3.18,3.18,0,0,0-1.39-.62,11.49,11.49,0,0,0-2.12-.15Z"/><path class="cls-1" d="M127.84,66.85v27.9h-2.59V66.85Z"/><path class="cls-1" d="M133,94.75V66.85h2.81a21.29,21.29,0,0,1,3,.17,6.61,6.61,0,0,1,2.37.92,4.85,4.85,0,0,1,1.91,2.2,17.69,17.69,0,0,1,1.09,4.11,41.53,41.53,0,0,1,.44,6.55,49.67,49.67,0,0,1-.37,6.81,11,11,0,0,1-1.39,4.23,5.37,5.37,0,0,1-2.62,2.28,11.88,11.88,0,0,1-4.24.63Zm2.59-25.53V92.38h.74a6,6,0,0,0,2.5-.46,4.38,4.38,0,0,0,1.65-1.26,5.57,5.57,0,0,0,.94-2.33,24.93,24.93,0,0,0,.43-3.2c.07-1.11.11-2.56.11-4.33,0-2,0-3.63-.15-4.9a20.62,20.62,0,0,0-.5-3.3,4.43,4.43,0,0,0-1.07-2.09,4.15,4.15,0,0,0-1.69-1,9.05,9.05,0,0,0-2.51-.29Z"/><path class="cls-1" d="M154.7,66.85l5.59,27.9h-2.77l-1-5.74h-5.92l-1,5.74h-2.77l5.47-27.9ZM151,86.76h5.07l-1.85-10.7c-.07-.37-.31-2.27-.7-5.7h-.15c-.05.45-.15,1.33-.31,2.65s-.3,2.34-.43,3Z"/><path class="cls-1" d="M163.25,94.75V66.85h2.81a21.29,21.29,0,0,1,3,.17,6.61,6.61,0,0,1,2.37.92,4.77,4.77,0,0,1,1.9,2.2,17.2,17.2,0,0,1,1.09,4.11,40.24,40.24,0,0,1,.45,6.55,51.33,51.33,0,0,1-.37,6.81,11,11,0,0,1-1.39,4.23,5.37,5.37,0,0,1-2.62,2.28,11.88,11.88,0,0,1-4.24.63Zm2.59-25.53V92.38h.74a6,6,0,0,0,2.5-.46,4.38,4.38,0,0,0,1.65-1.26,5.7,5.7,0,0,0,.94-2.33,23.29,23.29,0,0,0,.42-3.2c.08-1.11.11-2.56.11-4.33,0-2,0-3.63-.14-4.9a20.62,20.62,0,0,0-.5-3.3,4.43,4.43,0,0,0-1.07-2.09,4.22,4.22,0,0,0-1.69-1,9.08,9.08,0,0,0-2.52-.29Z"/><path class="cls-1" d="M121.3,0H94.85a4.4,4.4,0,0,0-4.4,4.41V30.84a4.4,4.4,0,0,0,4.4,4.4h26.43a4.4,4.4,0,0,0,4.41-4.4V4.39A4.38,4.38,0,0,0,121.3,0ZM139,3.39l-10,6.91V24.71l10,6.9a2.93,2.93,0,0,0,4.61-2.36V5.75A2.93,2.93,0,0,0,139,3.39Z"/><path class="cls-2" d="M5.7,58.48,29.33,68.61c1.75.75,3.28-1.84,1.51-2.6L7.22,55.89c-1.76-.75-3.29,1.83-1.52,2.59Z"/><path class="cls-2" d="M28.55,85.32A91.37,91.37,0,0,0,1.05,89c-1.85.54-1.06,3.44.8,2.89a88.66,88.66,0,0,1,26.7-3.56c1.94,0,1.94-3,0-3Z"/><path class="cls-2" d="M34.77,104.57q-7.34,6.92-14.17,14.34c-1.3,1.41.81,3.54,2.13,2.12q6.82-7.43,14.16-14.34c1.41-1.33-.71-3.45-2.12-2.12Z"/><path class="cls-2" d="M222.07,51.89,198.44,62c-1.77.76-.24,3.35,1.52,2.6l23.62-10.13c1.77-.76.25-3.34-1.51-2.59Z"/><path class="cls-2" d="M200.73,84.32a88.62,88.62,0,0,1,26.7,3.56c1.86.55,2.65-2.35.8-2.89a91.33,91.33,0,0,0-27.5-3.67c-1.93,0-1.93,3,0,3Z"/><path class="cls-2" d="M192.39,102.69q7.34,6.91,14.17,14.34c1.31,1.42,3.43-.71,2.12-2.12q-6.83-7.43-14.17-14.34c-1.4-1.33-3.53.79-2.12,2.12Z"/></g></g></svg>