<?xml version="1.0" encoding="utf-8"?>
<!-- Generator: Adobe Illustrator 23.0.0, SVG Export Plug-In . SVG Version: 6.00 Build 0)  -->
<svg version="1.1" id="Layer_1" xmlns="http://www.w3.org/2000/svg" xmlns:xlink="http://www.w3.org/1999/xlink" x="0px" y="0px"
	 viewBox="0 0 511.2 511.2" style="enable-background:new 0 0 511.2 511.2;" xml:space="preserve">
<style type="text/css">
	.st0{fill:#1F689D;}
</style>
<g transform="matrix(1.25 0 0 -1.25 0 45)">
	<path class="st0" d="M40.9-234.9H15.7C4.6-234.9,0-226.8,0-219c0,8.1,5.8,15.9,15.7,15.9h85c9.9,0,15.7-7.9,15.7-15.9
		c0-7.8-4.6-15.9-15.7-15.9H75.5v-115.9c0-11.6-7.4-18-17.3-18s-17.3,6.5-17.3,18V-234.9z"/>
	<path class="st0" d="M240.4-285.2c0,27.9-14.6,53.1-43.4,53.1c-28.9,0-43.4-25.2-43.4-53.1c0-28.2,14.1-53.1,43.4-53.1
		S240.4-313.4,240.4-285.2 M117.6-285.2c0,48,32.3,85,79.5,85c46.4,0,79.4-38.1,79.4-85c0-47.8-32.1-85-79.4-85
		C150.1-370.3,117.6-333,117.6-285.2"/>
	<path class="st0" d="M325.6-282.5h23.6c14.5,0,23.8,10.6,23.8,24.5c0,13.9-9.2,24.5-23.8,24.5h-23.6V-282.5z M290.9-221
		c0,10.9,6.5,18,18,18h40.9c34,0,59.1-22.2,59.1-55.2c0-33.7-26.1-54.7-57.7-54.7h-25.6v-37.9c0-11.5-7.4-18-17.3-18
		c-10,0-17.4,6.5-17.4,18V-221z"/>
</g>
<g>
	<path class="st0" d="M266.9,6.1l134.8,134.8c6.5,6.5,6.5,17,0,23.5L386,180.1c-6.5,6.5-17,6.5-23.5,0L255.1,73.4L147.8,180.2
		c-6.5,6.5-17,6.5-23.5,0l-15.7-15.7c-6.5-6.5-6.5-17,0-23.5L243.4,6.1C249.9-0.4,260.4-0.4,266.9,6.1z"/>
</g>
</svg>
