<svg id="Layer_1" data-name="Layer 1" xmlns="http://www.w3.org/2000/svg" viewBox="0 0 79.85 91"><defs><style>.cls-1{fill:#1f689d;}.cls-2{fill:#f9b901;}</style></defs><title>logoBanner</title><polygon class="cls-1" points="79.84 0 0.14 0 0.14 63.81 0 63.81 0.14 63.9 0.14 64.17 0.53 64.17 39.92 91 79.31 64.17 79.84 64.17 79.84 0"/><g id="Layer_1-2" data-name="Layer 1-2"><path class="cls-2" d="M38.85,64.15c-2.59,0-8.87-1.48-7.39-3,1.11-.73,5.94.46,7.58-.14a1.42,1.42,0,0,0,.77-2.5,7.64,7.64,0,0,0-3.92-1.42c-3.11-.43-7.56-.88-9.4.23a2.24,2.24,0,0,0-.74,3.32c.49.66,5.54,6.28,11.81,6.28,1.48,0,8.87.37,13.1-3.92,2.22-2.22,7-7,2.22-10.34-2.22-1.11-3.33-2.58-14-3-9.6.37-14.77,1.84-30.28,0-1.48-1.11-3.32-2.59-3.32-2.59s11.44,1.48,30.64,0c3-.37,23.63-1.84,24.74,3.7.37,1.47,1.11,7.38-7.38,13.29-2.33,1.55-4.63,3.71-8.67,4.29a55,55,0,0,1-10,0c-3.69-.59-7-3-9.23-4.8-2.67-2.22-4.08-4.58-4.26-7.25,0-1.1,0-6.64,14-4.06,6.65,1.48,15.51,2.59,11.08,7.76C44.75,61.93,41.46,64.15,38.85,64.15Z" transform="translate(-0.08 -5)"/><path class="cls-2" d="M41.63,26.49c2.58,0,8.86,1.48,7.38,3-1.11.74-5.93-.45-7.58.14a1.41,1.41,0,0,0-.76,2.5,7.33,7.33,0,0,0,3.91,1.43c3.13.43,7.56.87,9.4-.23A2.25,2.25,0,0,0,54.72,30c-.49-.65-5.54-6.27-11.81-6.27-1.48,0-8.86-.37-13.1,3.92-2.21,2.21-7,7-2.21,10.34,2.21,1.1,3.32,2.58,14,3,9.6-.37,14.77-1.85,30.27,0,1.48,1.11,3.33,2.58,3.33,2.58s-11.45-1.47-30.65,0c-2.95.37-23.63,1.85-24.74-3.69-.37-1.47-1.11-7.38,7.39-13.29,2.33-1.57,4.63-3.71,8.66-4.29a54.11,54.11,0,0,1,10,0c3.69.58,7,2.95,9.23,4.8,2.68,2.22,4.08,4.57,4.26,7.24,0,1.11,0,6.65-14,4.07-6.65-1.48-15.51-2.59-11.08-7.76C35.72,28.71,39,26.49,41.63,26.49Z" transform="translate(-0.08 -5)"/></g></svg>