<svg xmlns="http://www.w3.org/2000/svg" viewBox="0 0 189.53 126.47"><defs><style>.cls-1{fill:#f9b901;}</style></defs><title>SevillaLogo</title><g id="Layer_2" data-name="Layer 2"><g id="Layer_1-2" data-name="Layer 1"><path class="cls-1" d="M91,114.23c-7,0-24-4-20-8,3-2,16.07,1.24,20.53-.38,4-1,4.27-4.64,2.08-6.77C91.82,97.36,88.17,96,83,95.23c-8.43-1.18-20.47-2.38-25.47.62-2,1-5,5-2,9,1.34,1.78,15,17,32,17,4,0,24,1,35.47-10.62,6-6,19-19,6-28-6-3-9-7-38-8-26,1-40,5-82,0-4-3-9-7-9-7s31,4,83,0c8-1,64-5,67,10,1,4,3,20-20,36-6.31,4.21-12.53,10.06-23.47,11.62-5.21.74-19,.91-27,0-10-1.58-19-8-25-13-7.24-6-11.05-12.39-11.53-19.62,0-3,0-18,38-11,18,4,42,7,30,21C107,108.23,98.07,114.23,91,114.23Z"/><path class="cls-1" d="M98.53,12.24c7,0,24,4,20,8-3,2-16.06-1.24-20.53.38-4,1-4.27,4.64-2.07,6.77,1.78,1.72,5.44,3.12,10.6,3.85C115,32.42,127,33.62,132,30.62c2-1,5-5,2-9-1.34-1.78-15-17-32-17-4,0-24-1-35.47,10.62-6,6-19,19-6,28,6,3,9,7,38,8,26-1,40-5,82,0,4,3,9,7,9,7s-31-4-83,0c-8,1-64,5-67-10-1-4-3-20,20-36C65.84,8,72.07,2.18,83,.62c5.21-.74,19-.91,27,0,10,1.58,19,8,25,13,7.24,6,11.05,12.39,11.53,19.62,0,3,0,18-38,11-18-4-42-7-30-21C82.53,18.24,91.46,12.24,98.53,12.24Z"/></g></g></svg>